# xmcd CD database file
#
# Track frame offsets:
#	150
#	14131
#	36050
#	58067
#	81225
#	104125
#	126073
#	140921
#	160317
#	178341
#	198543
#	217364
#	241091
#	257256
#	276035
#	298499
#	320498
#	342809
#
# Disc length: 4797 seconds
#
# Revision: 0
# Processed by: cddbd v1.5.1PL0 Copyright (c) Steve Scherf et al.
# Submitted via: CDex 1.51
#
DISCID=2812bb12
DTITLE=Salsa - Salsa Cumbiando 2004
DYEAR=2004
DGENRE=Salsa
TTITLE0=Intro Mix
TTITLE1=Sombra Loca- Gilberto Santa Rosa
TTITLE2=Cumbia cha cha cha - Kual
TTITLE3=Ahor aquien-  Marck Anthony
TTITLE4=Rumba Frenesi- Kual
TTITLE5=Si volvieras a mi- Maelo Ruiz
TTITLE6=Cumbia de las Flores- Super grupo colombia
TTITLE7=Ay amor- Victor manuelle
TTITLE8=Corazon solitario- Alberto Pedraza
TTITLE9=Antes- Obie Bermudez
TTITLE10=Cumbia y Ron - Kual
TTITLE11=Amor Lunatico- Giro
TTITLE12=La guaracha Sabrosona-Alberto pedraza
TTITLE13=Nunca te diré Adios- Max Torres
TTITLE14=LA Rumba quimbumba- Kual
TTITLE15=Te va a Doler- Maelo Ruiz
TTITLE16=Mi rumba Cha cha cha- Kual
TTITLE17=Cumbia Colora- Conga
EXTD=YEAR: 2004
EXTT0=
EXTT1=
EXTT2=
EXTT3=
EXTT4=
EXTT5=
EXTT6=
EXTT7=
EXTT8=
EXTT9=
EXTT10=
EXTT11=
EXTT12=
EXTT13=
EXTT14=
EXTT15=
EXTT16=
EXTT17=
PLAYORDER=
